# xmcd
#
# Track frame offsets:
# 150
# 19198
# 38572
# 62404
# 84190
# 103378
# 118064
# 138949
# 154332
# 167970
# 198538
#
# Disc length: 2965 seconds
#
#
# Revision: 0
# Processed by: cddbd v1.5.2PL0 Copyright (c) Steve Scherf et al.
# Submitted via: FreeRIP 2.96 
#
DISCID=900b930b
DTITLE=H.T. Roberts - Fingernail Moon
DYEAR=2007
DGENRE=Country
TTITLE0=Woodsmoke
TTITLE1=Nightingale Floors
TTITLE2=Do Right By Maria
TTITLE3=Massey - Ferguson
TTITLE4=The Good Days
TTITLE5=Soon The Moon
TTITLE6=Happy Birthday Princess
TTITLE7=The Drifter
TTITLE8=River Tonight
TTITLE9=The Maze
TTITLE10=Went To See The Indians
EXTD=
EXTT0=
EXTT1=
EXTT2=
EXTT3=
EXTT4=
EXTT5=
EXTT6=
EXTT7=
EXTT8=
EXTT9=
EXTT10=
PLAYORDER=
